<svg t="1729648314093" class="icon" viewBox="0 0 1024 1024" version="1.1" xmlns="http://www.w3.org/2000/svg" p-id="1494" width="200" height="200"><path d="M865.92 448.725333A132.885333 132.885333 0 0 1 938.666667 470.314667l-21.162667 46.144a121.578667 121.578667 0 0 0-25.813333-14.528 64.426667 64.426667 0 0 0-23.402667-4.586667c-6.506667 0-11.882667 1.493333-16.213333 4.458667-4.266667 2.986667-6.378667 6.656-6.378667 10.986666 0 6.250667 7.04 12.074667 21.162667 17.493334 6.208 2.282667 11.114667 4.288 14.656 5.909333 19.669333 8.533333 33.450667 17.365333 41.28 26.538667 7.829333 9.173333 11.797333 20.565333 11.797333 34.282666 0 21.568-8.32 38.890667-25.045333 51.968-16.704 13.077333-38.890667 19.626667-66.666667 19.626667a161.493333 161.493333 0 0 1-45.013333-6.208 162.986667 162.986667 0 0 1-41.621334-18.816l24.192-49.237333c13.824 8.533333 25.386667 14.570667 34.773334 18.133333 9.386667 3.52 18.197333 5.269333 26.453333 5.269333 7.210667 0 12.949333-1.578667 17.28-4.778666a14.677333 14.677333 0 0 0 6.506667-12.288c0-7.765333-9.962667-15.68-29.909334-23.786667-5.994667-2.453333-10.581333-4.330667-13.824-5.717333-15.829333-7.082667-27.114667-14.698667-33.749333-22.976-6.613333-8.298667-9.941333-18.581333-9.941333-30.912 0-19.669333 8.192-35.989333 24.618666-49.024 16.405333-13.034667 37.482667-19.541333 63.253334-19.541334z m-531.84-85.802666l59.136 278.528 80.384-88.170667-59.605333-98.048h77.888l17.493333 33.365333c1.749333 3.242667 3.370667 6.698667 4.864 10.368s2.922667 7.744 4.309333 12.202667c2.026667-4.074667 4.266667-8.085333 6.698667-11.989333 2.410667-3.925333 5.077333-7.744 7.893333-11.370667l24.64-32.533333h82.368l-81.130666 98.837333 59.605333 106.581333h-81.386667l-19.114666-37.824a203.562667 203.562667 0 0 1-5.909334-12.416 75.946667 75.946667 0 0 1-3.669333-10.581333 188.522667 188.522667 0 0 1-7.530667 13.546667c-2.346667 3.754667-4.693333 7.125333-7.082666 10.197333l-28.288 37.034667H316.586667l-12.010667-56.149334h-104.106667L171.946667 660.650667H85.333333l149.077334-297.728h99.669333z m411.370667 92.309333l-32.533334 205.418667h-72.810666l32.32-205.44h73.024z m-470.144-20.330667c-2.88 8.106667-5.461333 15.296-7.893334 21.461334-2.346667 6.165333-4.224 10.730667-5.546666 13.738666l-31.552 68.138667h62.848l-13.610667-69.546667a277.909333 277.909333 0 0 1-3.050667-18.56 148.266667 148.266667 0 0 1-1.194666-15.232zM716.586667 355.413333c11.306667 0 20.608 3.669333 28.074666 11.008 7.466667 7.317333 11.2 16.533333 11.2 27.648 0 10.986667-3.797333 20.266667-11.370666 27.861334a37.973333 37.973333 0 0 1-27.904 11.370666c-10.709333 0-19.84-3.84-27.370667-11.498666a38.229333 38.229333 0 0 1-11.242667-27.733334c0-10.581333 3.797333-19.669333 11.306667-27.242666a36.949333 36.949333 0 0 1 27.306667-11.413334z" fill="#4E4E4E" p-id="1495"></path></svg>