<svg t="1729665217025" class="icon" viewBox="0 0 1024 1024" version="1.1"
    xmlns="http://www.w3.org/2000/svg" p-id="1423" width="200" height="200">
    <path
        d="M768 128a96 96 0 0 1 96 96v421.504a96 96 0 0 1-28.128 67.84l-154.496 154.56a96 96 0 0 1-67.872 28.096H256a96 96 0 0 1-96-96V224a96 96 0 0 1 96-96z m0 64H256a32 32 0 0 0-32 32v576a32 32 0 0 0 32 32h351.968L608 736a96 96 0 0 1 90.368-95.84L704 640h96V224a32 32 0 0 0-28.256-31.776L768 192z m-13.28 512H704a32 32 0 0 0-31.776 28.256L672 736l-0.032 50.752L754.72 704zM544 512a32 32 0 0 1 3.744 63.776L544 576h-192a32 32 0 0 1-3.744-63.776L352 512h192z m128-160a32 32 0 0 1 3.744 63.776L672 416H352a32 32 0 0 1-3.744-63.776L352 352h320z"
        fill="currentColor" p-id="1424"></path>
</svg>