<svg t="1729669925671" class="icon" viewBox="0 0 1024 1024" version="1.1"
    xmlns="http://www.w3.org/2000/svg" p-id="1543" width="200" height="200">
    <path
        d="M681.24000031 661.38000031l-8.69000062 8.7a158.1 158.1 0 0 0-38.29999969 103.63999969h-79.99999969c0-63.94999969 24.88999969-124.03999969 70.09999969-169.24000031l8.62000031-8.61c53.7-62.53000031 50.92999969-157.15999969-8.29000031-216.39999938-62.13-62.11000031-163.21000031-62.11999969-225.34000031 0a158.26999969 158.26999969 0 0 0-46.66999969 112.66999969c0 39.04999969 13.95 75.94000031 39.49000031 105.01000031l7.5 7.32999938c45.21 45.19999969 70.09999969 105.28999969 70.09999969 169.23h-79.99999969c0-39.04000031-13.95-75.94000031-39.48-105l-7.51000031-7.33999969a237.72 237.72 0 0 1-70.09999969-169.23 237.76000031 237.76000031 0 0 1 70.09999969-169.24000031c93.31999969-93.31000031 245.16-93.31000031 338.47999969 0 93.31000031 93.33 93.31000031 245.17000031-0.00999938 338.48000062zM398.97000031 909.81000031c0 44.11000031 35.89000031 79.99999969 79.99999969 79.99999969h70.00000031c44.11000031 0 79.99999969-35.89000031 79.99999969-79.99999969v-78.54h-229.99999969v78.54zM552.00000031 80.73999969c-0.52999969-21.70000031-18.16999969-39.18-39.97000031-39.18999938a39.94000031 39.94000031 0 0 0-39.93 39.13999969c-0.09 0-0.16999969 112.96999969-0.16999969 112.96999969l79.99999969 0.05000062L552.00000031 80.73999969zM195.24000031 228.45999969l79.83 79.94000062 56.61-56.53000031-79.83-79.93999969a40.09999969 40.09999969 0 0 0-55.98 0.54999938c-15.43000031 15.40000031-15.57 40.24000031-0.63 55.98z m21.76999969 300.26000062l0.04999969-80.00000062-112.96999969-0.07999969c-21.70000031 0.52999969-39.18 18.16999969-39.19000031 39.97000031a39.94999969 39.94999969 0 0 0 39.15 39.93c0 0.10000031 112.96000031 0.18 112.96000031 0.18z m-21.73000031 220.06999969a40.09999969 40.09999969 0 0 0 0.55000031 55.98 39.94999969 39.94999969 0 0 0 55.92 0.55999969c0.06 0.06 79.99999969-79.75999969 79.99999969-79.75999969l-56.52999938-56.59999969-79.94000062 79.81999969z m633.47000062 0.04000031l-79.82000062-79.93000031-56.59999969 56.52 79.81999969 79.93000031c15.70999969 14.98000031 40.54999969 14.86999969 55.98-0.54s15.57-40.24999969 0.62000062-55.98zM959.10000031 488.67000031a39.94000031 39.94000031 0 0 0-39.14000062-39.93c0-0.09-112.96999969-0.16999969-112.96999969-0.17000062l-0.06 80.00000062 112.96999969 0.07999969a40.09999969 40.09999969 0 0 0 39.20000062-39.97999969zM828.71 228.48999969a40.06999969 40.06999969 0 0 0-0.54-55.98 39.94000031 39.94000031 0 0 0-55.90999969-0.55999969c-0.07000031-0.07000031-79.99999969 79.75999969-80.00000062 79.75999969l56.52 56.60000062 79.93000031-79.82000062z"
        fill="currentColor" p-id="1544"></path>
</svg>