<svg t="1729665256666" class="icon" viewBox="0 0 1024 1024" version="1.1"
    xmlns="http://www.w3.org/2000/svg" p-id="1582" width="200" height="200">
    <path
        d="M512 170.666667a284.444444 284.444444 0 0 0-170.666667 512v85.333333A142.222222 142.222222 0 0 0 483.555556 910.222222h56.888888a142.222222 142.222222 0 0 0 142.222223-142.222222V682.666667a284.444444 284.444444 0 0 0-170.666667-512z m28.444444 682.666666h-56.888888a85.902222 85.902222 0 0 1-80.213334-56.888889h217.315556a85.902222 85.902222 0 0 1-80.213334 56.888889z m97.848889-208.782222a27.306667 27.306667 0 0 0-12.515555 23.324445V739.555556H398.222222v-71.68a27.306667 27.306667 0 0 0-12.515555-23.324445 227.555556 227.555556 0 1 1 252.586666 0zM654.222222 967.111111h-284.444444a28.444444 28.444444 0 0 0 0 56.888889h284.444444a28.444444 28.444444 0 0 0 0-56.888889zM512 113.777778a28.444444 28.444444 0 0 0 28.444444-28.444445v-56.888889a28.444444 28.444444 0 0 0-56.888888 0v56.888889A28.444444 28.444444 0 0 0 512 113.777778zM142.222222 426.666667h-56.888889a28.444444 28.444444 0 0 0 0 56.888889h56.888889a28.444444 28.444444 0 0 0 0-56.888889zM938.666667 426.666667h-56.888889a28.444444 28.444444 0 0 0 0 56.888889h56.888889a28.444444 28.444444 0 0 0 0-56.888889zM250.311111 221.866667a30.72 30.72 0 0 0 20.48-7.964445 29.013333 29.013333 0 0 0 0-40.391111l-40.391111-40.391111a28.444444 28.444444 0 0 0-40.391111 40.391111l40.391111 40.391111a30.72 30.72 0 0 0 19.911111 7.964445zM796.444444 133.12l-40.391111 40.391111a29.013333 29.013333 0 0 0 0 40.391111 29.582222 29.582222 0 0 0 40.391111 0l40.391112-40.391111a28.444444 28.444444 0 1 0-40.391112-40.391111z"
        p-id="1583" fill="currentColor"></path>
</svg>